<?xml version="1.0" encoding="utf-8"?>
<!-- Generator: Adobe Illustrator 15.1.0, SVG Export Plug-In . SVG Version: 6.00 Build 0)  -->
<!DOCTYPE svg PUBLIC "-//W3C//DTD SVG 1.1//EN" "http://www.w3.org/Graphics/SVG/1.1/DTD/svg11.dtd">
<svg version="1.1" xmlns="http://www.w3.org/2000/svg" xmlns:xlink="http://www.w3.org/1999/xlink" x="0px" y="0px" width="290px"
	 height="74px" viewBox="0 0 290 74" enable-background="new 0 0 290 74" xml:space="preserve">
<g id="Layer_1">
	<g>
		<g>
			<path fill-rule="evenodd" clip-rule="evenodd" fill="#007F6A" d="M82,14l-2.918,8.885c-0.307,0.974-0.64,2.28-0.948,3.587h-0.051
				c-0.256-1.204-0.666-2.716-0.948-3.638L74.186,14h-3.92l-2.622,17H71l1.01-7.885c0.179-1.512,0.333-3.075,0.461-4.612h0.051
				c0.256,1.409,0.667,3.074,1.127,4.561L76.304,31h3.229l2.804-8.551c0.436-1.409,0.743-2.844,0.974-3.945h0.051
				c0.128,1.204,0.307,2.767,0.538,4.33L85.144,31h3.459l-2.708-17H82z M100.61,16.684L100.582,14h-9.403l0.018,17h9.403
				l0.011-2.684h-6.073v-4.663h5.765v-2.716h-5.765v-4.253H100.61z M107.161,31l0.011-6.962h0.282L112.106,31h4.125l-4.012-5.63
				c-0.41-0.615-0.896-1.255-1.383-1.896c2.408-0.41,4.253-2.255,4.253-4.817c0-3.536-2.488-4.759-6.306-4.759
				c-1.998,0-3.612,0.026-4.971,0.103l0.018,17H107.161z M107.172,16.582c0.333-0.051,0.82-0.077,1.307-0.077
				c2.101,0,3.126,0.82,3.126,2.485c0,1.614-1.23,2.639-3.229,2.639c-0.512,0-0.974-0.026-1.204-0.052V16.582z M128.544,25.882
				c0-5.483-7.405-4.355-7.405-7.43c0-1.23,0.896-2.076,2.844-2.076c1.025,0,2.024,0.18,2.972,0.487l0.279-2.812
				c-0.974-0.205-2.178-0.333-3.126-0.333c-4.176,0-6.505,2.018-6.505,5.093c0,5.688,7.277,4.176,7.277,7.481
				c0,1.614-1.333,2.255-2.895,2.255c-1.384,0-2.665-0.282-3.767-0.743l-0.37,3.017c1.153,0.308,2.46,0.462,3.997,0.462
				C125.843,31.283,128.544,29.085,128.544,25.882z M58.838,57.828c-5.159,0-7.473-3.109-7.473-8.648
				c0-5.008,2.352-8.611,7.169-8.611c1.707,0,3.452,0.305,5.007,0.91l0.683-4.551c-1.669-0.494-3.642-0.76-5.462-0.76
				c-0.661,0-1.287,0.045-1.896,0.112c-0.354-0.419-0.624-0.871-0.715-1.334c-0.38-1.926,1.468-5.195-1.148-5.001
				c-2.622,0.194-1.389,1.542,0.136,5.212c0.219,0.526,0.369,0.95,0.477,1.306c-1.077,0.209-2.056,0.537-2.953,0.958
				c-0.729-0.245-1.404-0.598-1.79-1.114c-1.177-1.573-0.925-5.318-3.199-4.012c-2.28,1.31-0.585,1.99,2.378,4.639
				c0.577,0.516,0.972,0.923,1.24,1.251c-0.882,0.581-1.657,1.274-2.32,2.074c-0.583,0.011-1.137-0.071-1.574-0.312
				c-1.72-0.947-3.036-4.463-4.569-2.336c-1.537,2.135,0.288,2.057,4.08,3.248c0.531,0.167,0.947,0.321,1.285,0.465
				c-1.497,2.316-2.253,5.289-2.253,8.689c0,6.373,2.883,12.291,11.835,12.291c2.39,0,4.78-0.455,6.676-1.176l-0.759-4.363
				C62.366,57.41,60.394,57.828,58.838,57.828z M76.854,42.77c-5.728,0-9.635,4.248-9.635,10.127c0,6.715,3.49,9.484,8.838,9.484
				c5.614,0,9.635-4.25,9.635-10.166C85.693,45.729,82.241,42.77,76.854,42.77z M76.437,58.246c-2.769,0-4.21-1.973-4.21-5.842
				s2.125-5.539,4.286-5.539c2.845,0,4.173,1.973,4.173,5.615C80.686,56.311,78.827,58.246,76.437,58.246z M94.324,46.941h-0.076
				c0.228-1.328,0.341-2.844,0.341-3.793H90V62h4.855v-7.699c0-5.234,1.745-7.473,5.234-6.791l0.228-4.74
				C97.055,42.465,95.235,44.553,94.324,46.941z M111.294,42.77c-5.728,0-9.635,4.248-9.635,10.127c0,6.715,3.49,9.484,8.838,9.484
				c5.614,0,9.635-4.25,9.635-10.166C120.132,45.729,116.681,42.77,111.294,42.77z M110.877,58.246c-2.769,0-4.21-1.973-4.21-5.842
				s2.124-5.539,4.286-5.539c2.845,0,4.173,1.973,4.173,5.615C115.125,56.311,113.267,58.246,110.877,58.246z M134.773,42.77
				c-3.073,0-5.273,1.555-6.411,3.754h-0.038c0.189-0.984,0.266-2.502,0.266-3.375H124V62h4.855v-9.104
				c0-3.299,1.935-6.068,4.362-6.068c1.821,0,2.353,1.176,2.353,3.109V62h4.816V48.762C140.386,45.463,139.021,42.77,134.773,42.77z
				 M160.225,49.369c0-4.211-1.746-6.639-7.588-6.639c-2.541,0-5.234,0.531-7.131,1.291l0.797,3.717
				c1.67-0.721,3.982-1.289,5.689-1.289c2.504,0,3.377,1.023,3.377,3.299v0.684c-6.602,0-10.887,2.086-10.887,6.562
				c0,3.072,1.973,5.387,5.387,5.387c2.807,0,5.121-1.48,6.031-3.604l0.037,0.037c-0.152,0.986-0.189,2.086-0.189,3.186h4.627
				c-0.113-1.555-0.15-3.338-0.15-4.855V49.369z M155.369,54.111c0,2.275-1.594,4.551-3.945,4.551c-1.404,0-2.275-0.986-2.275-2.199
				c0-1.631,1.326-2.846,6.221-2.846V54.111z M195.638,43.031c-4.098,0-6.107,3.033-6.752,4.816
				c0.076-1.289-0.607-4.816-5.273-4.816c-3.225,0-5.766,1.934-6.828,4.893l-0.074-0.037c0.227-1.215,0.34-3.148,0.34-4.553h-2.086
				v18.852h2.01v-8.914c0-5.082,2.732-8.609,6.223-8.609c3.299,0,3.869,2.389,3.869,5.234v12.289h2.01v-8.914
				c0-5.424,2.996-8.609,6.221-8.609c3.111,0,3.869,2.086,3.869,5.271v12.252h2.01V49.1
				C201.175,44.852,199.128,43.031,195.638,43.031z M220.784,49.594c0-3.945-1.555-6.562-6.297-6.562
				c-2.391,0-4.703,0.605-6.486,1.402l0.531,1.707c1.555-0.797,3.83-1.441,5.652-1.441c3.488,0,4.59,1.82,4.59,5.539v1.061
				c-7.777,0-11.723,2.732-11.723,6.373c0,3.035,2.238,4.818,5.084,4.818c3.375,0,5.879-2.086,6.789-4.629l0.076,0.039
				c-0.189,1.137-0.227,2.693-0.227,4.285h2.086c-0.039-1.744-0.076-3.982-0.076-5.992V49.594z M218.774,53.387
				c0,3.641-2.467,7.396-6.184,7.396c-2.086,0-3.453-1.48-3.453-3.49c0-2.199,2.164-4.361,9.637-4.361V53.387z M236.903,43.031
				c-3.072,0-5.613,1.896-6.676,4.855l-0.076-0.039c0.266-1.176,0.379-3.262,0.379-4.514h-2.123v28.412h2.01v-9.635
				c1.441,0.227,2.504,0.266,3.945,0.266c5.689,0,9.521-3.566,9.521-10.432C243.884,45.988,241.304,43.031,236.903,43.031z
				 M234.589,60.783c-1.592,0-2.92-0.152-4.172-0.568v-7.133c0-3.414,1.973-8.42,6.26-8.42c3.488,0,5.082,2.844,5.082,7.434
				C241.759,58.203,238.952,60.783,234.589,60.783z"/>
		</g>
	</g>
</g>
<g id="Layer_2">
	<linearGradient id="SVGID_1_" gradientUnits="userSpaceOnUse" x1="134" y1="30.5254" x2="243.0303" y2="30.5254">
		<stop  offset="0" style="stop-color:#007F6A"/>
		<stop  offset="1" style="stop-color:#FFFFFF"/>
	</linearGradient>
	<path fill-rule="evenodd" clip-rule="evenodd" fill="url(#SVGID_1_)" d="M134,30.051h109.03V31H134V30.051z"/>
</g>
</svg>
