<?xml version="1.0" encoding="utf-8"?>
<!-- Generator: Adobe Illustrator 15.1.0, SVG Export Plug-In . SVG Version: 6.00 Build 0)  -->
<!DOCTYPE svg PUBLIC "-//W3C//DTD SVG 1.1//EN" "http://www.w3.org/Graphics/SVG/1.1/DTD/svg11.dtd">
<svg version="1.1" xmlns="http://www.w3.org/2000/svg" xmlns:xlink="http://www.w3.org/1999/xlink" x="0px" y="0px" width="36px"
	 height="36px" viewBox="0 0 36 36" enable-background="new 0 0 36 36" xml:space="preserve">
<g id="Layer_2">
	<path fill-rule="evenodd" clip-rule="evenodd" fill="#FFFFFF" d="M18,0c9.941,0,18,8.059,18,18c0,9.941-8.059,18-18,18
		S0,27.941,0,18C0,8.059,8.059,0,18,0z"/>
</g>
<g id="Layer_1">
	<g>
		<g>
			<path fill-rule="evenodd" clip-rule="evenodd" fill="#231F20" d="M18,0C8.059,0,0,8.059,0,18c0,9.941,8.059,18,18,18
				s18-8.059,18-18C36,8.059,27.941,0,18,0z M18,34C9.163,34,2,26.836,2,18C2,9.164,9.163,2,18,2s16,7.164,16,16
				C34,26.836,26.837,34,18,34z M25.071,10.929c-0.391-0.39-1.024-0.39-1.414,0L18,16.585l-5.657-5.657
				c-0.391-0.39-1.023-0.39-1.414,0c-0.391,0.391-0.391,1.024,0,1.415L16.585,18l-5.657,5.656c-0.391,0.391-0.391,1.024,0,1.415
				c0.391,0.39,1.023,0.39,1.414,0L18,19.414l5.657,5.657c0.39,0.39,1.023,0.39,1.414,0c0.391-0.391,0.391-1.024,0-1.415L19.414,18
				l5.657-5.657C25.462,11.953,25.462,11.319,25.071,10.929z"/>
		</g>
	</g>
</g>
</svg>
